<?xml version="1.0" encoding="UTF-8" standalone="no"?>
<!-- Created with Inkscape (http://www.inkscape.org/) -->

<svg
   xmlns:dc="http://purl.org/dc/elements/1.1/"
   xmlns:cc="http://creativecommons.org/ns#"
   xmlns:rdf="http://www.w3.org/1999/02/22-rdf-syntax-ns#"
   xmlns:svg="http://www.w3.org/2000/svg"
   xmlns="http://www.w3.org/2000/svg"
   xmlns:sodipodi="http://sodipodi.sourceforge.net/DTD/sodipodi-0.dtd"
   xmlns:inkscape="http://www.inkscape.org/namespaces/inkscape"
   width="211.76106mm"
   height="161.39587mm"
   viewBox="0 0 211.76106 161.39587"
   version="1.1"
   id="svg8"
   inkscape:version="0.92.4 (5da689c313, 2019-01-14)"
   sodipodi:docname="logo.svg">
  <defs
     id="defs2" />
  <sodipodi:namedview
     id="base"
     pagecolor="#ffffff"
     bordercolor="#666666"
     borderopacity="1.0"
     inkscape:pageopacity="0.0"
     inkscape:pageshadow="2"
     inkscape:zoom="0.35"
     inkscape:cx="-204.83668"
     inkscape:cy="227.85901"
     inkscape:document-units="mm"
     inkscape:current-layer="layer1"
     showgrid="false"
     inkscape:pagecheckerboard="true"
     fit-margin-top="0"
     fit-margin-left="0"
     fit-margin-right="0"
     fit-margin-bottom="0"
     inkscape:window-width="1323"
     inkscape:window-height="745"
     inkscape:window-x="35"
     inkscape:window-y="-8"
     inkscape:window-maximized="1" />
  <metadata
     id="metadata5">
    <rdf:RDF>
      <cc:Work
         rdf:about="">
        <dc:format>image/svg+xml</dc:format>
        <dc:type
           rdf:resource="http://purl.org/dc/dcmitype/StillImage" />
        <dc:title></dc:title>
      </cc:Work>
    </rdf:RDF>
  </metadata>
  <g
     inkscape:label="レイヤー 1"
     inkscape:groupmode="layer"
     id="layer1"
     transform="translate(-253.9056,-55.284223)">
    <path
       style="fill:#ffffff;stroke-width:1"
       d="m 386.03527,204.57536 0.0231,-12.10468 -25.70166,-0.1323 c -25.0564,-0.12897 -25.71108,-0.14518 -26.07711,-0.64588 -0.41168,-0.56317 -0.40966,-0.49132 -0.37581,-13.32078 l 0.0211,-8.01354 25.97569,-38.61927 25.97569,-38.619267 h 7.17688 c 3.94728,0 9.16003,-0.0782 11.58388,-0.17381 l 4.407,-0.17381 0.067,38.869117 0.067,38.86912 8.53282,0.0698 8.53281,0.0698 -5.3e-4,2.9729 c -2.7e-4,1.63509 -0.079,6.45547 -0.17492,10.71196 l -0.17443,7.73906 h -8.42404 -8.42404 v 12.30313 12.30312 h -11.51683 -11.51683 l 0.0231,-12.10469 z m -1.95623,-34.35034 1.88842,-0.1512 0.17895,-7.71928 c 0.0984,-4.2456 0.1416,-12.93804 0.096,-19.31652 l -0.083,-11.59724 -0.90447,1.27849 c -0.49745,0.70317 -4.89121,7.11255 -9.7639,14.24307 -11.26317,16.48214 -14.51191,21.19402 -15.44112,22.39537 -0.41014,0.53026 -0.74574,1.00651 -0.74577,1.05833 -10e-5,0.15071 22.6921,-0.0243 24.77493,-0.19102 z m 52.21887,-4.43624 v -50.89127 l -3.6137,-0.17331 c -1.98754,-0.0953 -5.15262,-0.17331 -7.03351,-0.17331 -1.88089,0 -3.38011,-0.0992 -3.3316,-0.22039 0.0485,-0.12122 3.00522,-5.01419 6.57048,-10.87329 l 6.48229,-10.652887 4.73877,0.15766 c 2.60633,0.0867 8.04076,0.15766 12.07652,0.15766 h 7.33776 l 0.16396,4.29947 c 0.0902,2.36472 0.19214,30.165817 0.2266,61.780227 l 0.0626,57.48075 -11.8401,-2e-5 -11.84011,-2e-5 z m -136.21365,50.16367 c -0.67927,-0.58134 -1.36395,-1.54798 -13.44646,-18.98386 -5.44543,-7.85812 -10.18635,-14.63632 -10.53539,-15.06267 -0.51814,-0.6329 -0.7056,-0.71625 -1.02142,-0.45415 -0.21274,0.17656 -1.67235,2.13273 -3.24359,4.34705 -3.63856,5.12777 -5.11487,7.06873 -5.37654,7.06873 -0.11451,0 -1.19902,-1.75617 -2.41001,-3.9026 -1.211,-2.14644 -3.44872,-6.10526 -4.97271,-8.7974 -1.524,-2.69213 -3.31127,-5.92999 -3.97172,-7.19523 l -1.20082,-2.30045 1.01875,-1.53601 c 1.21636,-1.83396 19.48681,-25.36074 21.02074,-27.06831 l 1.06956,-1.19062 0.66659,0.79375 c 0.36663,0.43656 2.59373,3.59172 4.94913,7.01145 7.96556,11.565 12.85355,18.12396 13.50665,18.12396 0.4243,0 1.27841,-1.95983 15.79715,-36.24791 7.08613,-16.7349 17.16067,-40.517527 22.38787,-52.850285 l 9.50399,-22.423202 60.92032,-2.35e-4 60.92032,-2.35e-4 v 12.435416 12.435414 l -14.22136,1e-4 c -7.82174,5e-5 -31.98472,0.0793 -53.69551,0.17603 l -39.47416,0.17593 -3.03704,7.03387 c -1.67037,3.86862 -3.77412,8.8198 -4.67499,11.00261 -0.90087,2.182817 -3.87488,9.267037 -6.60891,15.742707 -2.73403,6.47568 -6.18542,14.69099 -7.66974,18.25625 -1.48432,3.56526 -4.72267,11.24479 -7.19632,17.06563 -2.47365,5.82083 -9.47154,22.43005 -15.55086,36.90937 -11.20508,26.68754 -12.57876,29.89792 -12.79293,29.89792 -0.0658,0 -0.36303,-0.20836 -0.66059,-0.46302 z"
       id="path826"
       inkscape:connector-curvature="0" />
  </g>
</svg>
